<svg xmlns="http://www.w3.org/2000/svg" xmlns:xlink="http://www.w3.org/1999/xlink" width="1423.349" height="442.938" viewBox="0 0 1423.349 442.938">
  <defs>
    <style>
      .cls-1 {
        fill: #fff;
        fill-rule: evenodd;
        filter: url(#filter);
      }
    </style>
    <filter id="filter" x="223.031" y="32.313" width="1423.349" height="442.938" filterUnits="userSpaceOnUse">
      <feFlood result="flood"/>
      <feComposite result="composite" operator="in" in2="SourceGraphic"/>
      <feBlend result="blend" in2="SourceGraphic"/>
    </filter>
  </defs>
  <path id="pma" class="cls-1" d="M624.282,63.42Q599.027,32.3,548.81,32.3q-23.091,0-48.2,11.537T448.947,79.663h-2.31a113.5,113.5,0,0,0-8.563-16.7A49.844,49.844,0,0,0,425.157,49a61.056,61.056,0,0,0-21.485-10.171,111.8,111.8,0,0,0-28.153-3.188q-19.16,0-40.637,7.135T289.888,59.929L283.5,87.253q6.673-2.733,16.837-5.769a66.278,66.278,0,0,1,18.867-3.036q18.865,0,25.241,7.139t6.375,23.245a118.773,118.773,0,0,1-2.749,22.486q-2.752,13.676-4.485,22.486L286.108,418.763q-2.319,12.153-7.523,19.293T263.538,448.54a119.529,119.529,0,0,1-17.072,3.5q-11.284,1.665-18.808,2.277l-4.629,20.949H432.078l4.63-20.949a182.683,182.683,0,0,1-23.438-3.5q-14.179-2.9-20.544-5.94a18.159,18.159,0,0,1-8.685-8.52,28.146,28.146,0,0,1-2.893-12.779,48.406,48.406,0,0,1,.868-7.154q0.867-5.024,1.74-8.672L401.321,326.8a89.562,89.562,0,0,0,29.36,15.94q16.928,5.614,44.7,5.616,37.029,0,67.691-15.18t55.258-43.112q23.722-27.018,37.462-63.909a220.407,220.407,0,0,0,13.745-77.571Q649.538,94.545,624.282,63.42ZM492.364,307.975q-16.609,14.572-34.515,14.573-21.661,0-33.217-13.814t-11.551-34.763l35.87-166.68q6.925-8.8,21.648-18.823t30.025-10.019q13.278,0,22.086,5.161a37.585,37.585,0,0,1,14,14.573,64.007,64.007,0,0,1,7.216,21.708,173.98,173.98,0,0,1,2.021,27.476q0,36.134-6.357,65.275A260.688,260.688,0,0,1,520.82,268.2Q508.972,293.407,492.364,307.975Zm745.486-8.349a71.166,71.166,0,0,1-19.62,3.187q-18.45,0-25.81-6.375t-7.35-23.985q0-6.981,2.29-20.645t5.17-24.289l21.83-85.313a155.427,155.427,0,0,0,4.77-26.869q1.02-12.6,1.01-19.583,0-26.414-18.22-44.934T1151.61,32.3q-34.125,0-60.73,15.029t-57.54,42.96h-2.02Q1029.3,65.7,1010.19,49T961.267,32.3q-35.021,0-61.944,14.573t-55.864,42.5h-2.025q-6.368-23.681-22-38.71T768.494,35.64q-19.111,0-40.528,7.135T683.1,59.929l-6.366,27.325q6.945-2.733,16.651-5.769a63.421,63.421,0,0,1,18.971-3.036q18.819,0,25.188,6.528t6.37,23.833q0,8.5-2.749,22.467t-4.485,22.467L695.545,340.461h95.627l48-219.2q23.986-22.77,39.886-30.361t24.857-7.59q15.9,0,22.832,8.2t6.94,22.77a100.372,100.372,0,0,1-1.592,16.4q-1.593,9.414-4.774,24.592l-40.5,185.2H982.44l48-219.2q17.31-17.306,34.21-27.628t27.87-10.323q15.585,0,22.52,8.2t6.94,22.77a120.383,120.383,0,0,1-1.59,17.154q-1.605,10.475-4.8,23.529l-20.99,80.76q-4.08,17.005-4.8,28.387t-0.73,18.671q0,26.721,19.13,44.782t53.63,18.065q22.605,0,39.7-6.224t45.81-18.065l6.37-27.324A105.209,105.209,0,0,1,1237.85,299.626Zm269,34.611q17.775,12.3,47.57,12.3,22.545,0,39.75-6.224T1640,322.244l6.36-27.324a131.891,131.891,0,0,1-16.06,5.465q-11.43,3.343-19.53,3.339-18.51,0-26.04-6.527t-7.52-23.833q0-7.287,2.6-21.4t4.92-23.529l42.63-186.718-4.05-4.858-88.76,19.127q-12.45-10.93-32-17.305t-45.6-6.376a150.6,150.6,0,0,0-67.75,15.925,181.8,181.8,0,0,0-56.18,43.221,219.63,219.63,0,0,0-37.92,64q-14.19,36.4-14.19,77.946,0,53.994,25.48,85.085t75.85,31.087a95.759,95.759,0,0,0,29.68-4.374,150.5,150.5,0,0,0,25.62-11.01,144.506,144.506,0,0,0,23.02-15.081q9.105-7.543,19.25-16.594h2.32Q1489.06,321.943,1506.85,334.237Zm-27.28-59.621a118.427,118.427,0,0,1-23.33,20.465q-12.615,8.34-26.24,8.34-13.32,0-22.17-5.152a37.393,37.393,0,0,1-14.05-14.559,66.809,66.809,0,0,1-7.11-21.528,164.178,164.178,0,0,1-2.17-27.6,295.262,295.262,0,0,1,6.95-64.127q6.945-31.38,19.12-55.038,12.45-23.952,28.52-38.359t35.19-14.4q12.45,0,20.86,4.094a33.935,33.935,0,0,1,13.61,11.978,40.8,40.8,0,0,1,6.08,15.465,85.554,85.554,0,0,1,1.74,15.764Z" transform="translate(-223.031 -32.313)"/>
</svg>
