<svg xmlns="http://www.w3.org/2000/svg" width="463" height="127" viewBox="0 0 463 127">
  <defs>
    <style>
      .cls-1 {
        stroke: #fff;
        stroke-linejoin: round;
        stroke-width: 2px;
        fill-rule: evenodd;
      }
    </style>
  </defs>
  <path id="pma" class="cls-1" d="M169.1,33.253q-5.107-6-15.265-6a24.279,24.279,0,0,0-9.749,2.224,41.59,41.59,0,0,0-10.449,6.906h-0.467a21.5,21.5,0,0,0-1.732-3.219,9.811,9.811,0,0,0-2.613-2.692,12.624,12.624,0,0,0-4.345-1.96,23.682,23.682,0,0,0-5.695-.615,27.28,27.28,0,0,0-8.219,1.375q-4.345,1.376-9.1,3.307l-1.291,5.267q1.349-.527,3.405-1.112a14.016,14.016,0,0,1,3.816-.585q3.816,0,5.1,1.376t1.29,4.481a21.9,21.9,0,0,1-.556,4.334q-0.558,2.636-.907,4.334L100.705,101.75a8.947,8.947,0,0,1-1.521,3.719,6.048,6.048,0,0,1-3.043,2.021,25.241,25.241,0,0,1-3.453.674q-2.282.321-3.8,0.439l-0.936,4.038h42.282l0.936-4.038a38.772,38.772,0,0,1-4.74-.674,20.088,20.088,0,0,1-4.155-1.145,3.6,3.6,0,0,1-1.757-1.642,5.224,5.224,0,0,1-.585-2.464,8.918,8.918,0,0,1,.175-1.379q0.176-.968.352-1.671l3.553-15.605a18.4,18.4,0,0,0,5.938,3.073,30.826,30.826,0,0,0,9.042,1.083,31.688,31.688,0,0,0,13.691-2.926,36.159,36.159,0,0,0,11.176-8.31,38.829,38.829,0,0,0,7.577-12.319,40.705,40.705,0,0,0,2.78-14.953Q174.212,39.253,169.1,33.253ZM142.422,80.394a10.778,10.778,0,0,1-6.981,2.809,8.46,8.46,0,0,1-6.718-2.663,9.788,9.788,0,0,1-2.336-6.7l7.255-32.13a19.389,19.389,0,0,1,4.378-3.628,11.045,11.045,0,0,1,6.073-1.931,9.071,9.071,0,0,1,4.467.995,7.41,7.41,0,0,1,2.832,2.809,11.944,11.944,0,0,1,1.46,4.185,32.047,32.047,0,0,1,.408,5.3,56.609,56.609,0,0,1-1.285,12.583,48.668,48.668,0,0,1-3.8,10.71A23.153,23.153,0,0,1,142.422,80.394ZM293.2,78.785a15.029,15.029,0,0,1-3.967.614q-3.734,0-5.22-1.229t-1.488-4.623a25.026,25.026,0,0,1,.465-3.98,47.221,47.221,0,0,1,1.046-4.682l4.414-16.445a28.61,28.61,0,0,0,.965-5.179q0.205-2.428.205-3.775a11.614,11.614,0,0,0-3.685-8.662q-3.684-3.569-10.176-3.57a25.5,25.5,0,0,0-12.283,2.9,67.033,67.033,0,0,0-11.638,8.281h-0.41a11.312,11.312,0,0,0-4.274-7.959,14.941,14.941,0,0,0-9.894-3.219,26.948,26.948,0,0,0-12.529,2.809,52.822,52.822,0,0,0-11.3,8.193h-0.409a15.618,15.618,0,0,0-4.45-7.462q-3.162-2.9-10.3-2.9a27.135,27.135,0,0,0-8.2,1.375Q185.743,30.649,181,32.58l-1.288,5.267q1.406-.527,3.368-1.112a13.409,13.409,0,0,1,3.837-.585q3.807,0,5.095,1.258T193.3,42a22.569,22.569,0,0,1-.556,4.331q-0.557,2.693-.907,4.331l-8.321,35.993h19.342L212.567,44.4a34.634,34.634,0,0,1,8.067-5.852,13.3,13.3,0,0,1,5.027-1.463q3.216,0,4.618,1.58a6.38,6.38,0,0,1,1.4,4.389,18.466,18.466,0,0,1-.322,3.16q-0.322,1.815-.965,4.741l-8.193,35.7h19.341L251.252,44.4a37.662,37.662,0,0,1,6.921-5.326,12.013,12.013,0,0,1,5.635-1.99q3.154,0,4.556,1.58a6.384,6.384,0,0,1,1.4,4.389,21.939,21.939,0,0,1-.322,3.307q-0.322,2.019-.97,4.536L264.23,66.465a31.8,31.8,0,0,0-.972,5.472q-0.147,2.195-.146,3.6a11.144,11.144,0,0,0,3.869,8.632q3.867,3.483,10.846,3.482a24.514,24.514,0,0,0,8.031-1.2q3.459-1.2,9.264-3.482l1.289-5.267A21.9,21.9,0,0,1,293.2,78.785Zm54.409,6.672q3.6,2.37,9.621,2.37a24.655,24.655,0,0,0,8.04-1.2q3.48-1.2,9.27-3.482l1.287-5.267a27.684,27.684,0,0,1-3.248,1.053,15.109,15.109,0,0,1-3.951.644q-3.745,0-5.267-1.258t-1.522-4.594a23.724,23.724,0,0,1,.527-4.126q0.526-2.721,1-4.536l8.621-35.993-0.818-.936-17.953,3.687a18.547,18.547,0,0,0-6.472-3.336,31.152,31.152,0,0,0-9.223-1.229,31.7,31.7,0,0,0-13.7,3.07,36.612,36.612,0,0,0-11.361,8.331,41.934,41.934,0,0,0-7.671,12.338,39.3,39.3,0,0,0-2.87,15.025q0,10.408,5.153,16.4t15.343,5.992a20.249,20.249,0,0,0,6-.843,31.188,31.188,0,0,0,5.182-2.122,29.346,29.346,0,0,0,4.656-2.907q1.844-1.454,3.894-3.2h0.469A12.459,12.459,0,0,0,347.611,85.457Zm-5.518-11.493a23.643,23.643,0,0,1-4.719,3.945,9.816,9.816,0,0,1-5.306,1.608,9.146,9.146,0,0,1-4.485-.993,7.381,7.381,0,0,1-2.842-2.806,12.471,12.471,0,0,1-1.437-4.15,30.126,30.126,0,0,1-.44-5.319,54.383,54.383,0,0,1,1.406-12.361,42.539,42.539,0,0,1,3.867-10.609,25.868,25.868,0,0,1,5.769-7.394,10.728,10.728,0,0,1,7.118-2.776,10,10,0,0,1,4.218.789A6.758,6.758,0,0,1,348,36.2a7.639,7.639,0,0,1,1.23,2.981,15.8,15.8,0,0,1,.352,3.039Z"/>
</svg>
